<svg xmlns="http://www.w3.org/2000/svg" xmlns:xlink="http://www.w3.org/1999/xlink" viewBox="0 0 288.5 252.35"><defs><style>.cls-1{fill:#e4f2fc;}.cls-2{fill:url(#New_Gradient_Swatch_1);}.cls-3{fill:url(#New_Gradient_Swatch_1-2);}.cls-4{fill:url(#New_Gradient_Swatch_1-3);}.cls-5{fill:url(#linear-gradient);}.cls-6{fill:url(#New_Gradient_Swatch_1-4);}.cls-7{fill:url(#New_Gradient_Swatch_1-5);}.cls-8{fill:url(#New_Gradient_Swatch_1-6);}.cls-9{fill:url(#New_Gradient_Swatch_1-7);}.cls-10{fill:url(#New_Gradient_Swatch_1-8);}.cls-11{fill:url(#New_Gradient_Swatch_1-9);}.cls-12{fill:url(#New_Gradient_Swatch_1-10);}.cls-13{fill:url(#New_Gradient_Swatch_1-11);}</style><linearGradient id="New_Gradient_Swatch_1" x1="182.66" y1="192.3" x2="260.87" y2="5" gradientUnits="userSpaceOnUse"><stop offset="0" stop-color="#fff"/><stop offset="0" stop-color="#d3d3da"/><stop offset="0.5" stop-color="#03002a"/><stop offset="1" stop-color="#b498c6"/><stop offset="1"/></linearGradient><linearGradient id="New_Gradient_Swatch_1-2" x1="62.11" y1="248.73" x2="177.27" y2="-27.06" xlink:href="#New_Gradient_Swatch_1"/><linearGradient id="New_Gradient_Swatch_1-3" x1="-11.03" y1="114.29" x2="33.89" y2="6.72" xlink:href="#New_Gradient_Swatch_1"/><linearGradient id="linear-gradient" x1="22.97" y1="109.56" x2="50.43" y2="43.8" gradientUnits="userSpaceOnUse"><stop offset="0" stop-color="#fff"/><stop offset="0" stop-color="#d3d3da"/><stop offset="0.38" stop-color="#343253"/><stop offset="0.5" stop-color="#03002a"/><stop offset="1" stop-color="#b498c6"/><stop offset="1"/></linearGradient><linearGradient id="New_Gradient_Swatch_1-4" x1="82.99" y1="144.03" x2="115.97" y2="65.04" xlink:href="#New_Gradient_Swatch_1"/><linearGradient id="New_Gradient_Swatch_1-5" x1="109.66" y1="156.58" x2="139.34" y2="77.16" xlink:href="#New_Gradient_Swatch_1"/><linearGradient id="New_Gradient_Swatch_1-6" x1="193.69" y1="169.34" x2="208.53" y2="92.75" xlink:href="#New_Gradient_Swatch_1"/><linearGradient id="New_Gradient_Swatch_1-7" x1="222.94" y1="195.64" x2="246.89" y2="78.74" xlink:href="#New_Gradient_Swatch_1"/><linearGradient id="New_Gradient_Swatch_1-8" x1="27.91" y1="63.02" x2="50.05" y2="10" xlink:href="#New_Gradient_Swatch_1"/><linearGradient id="New_Gradient_Swatch_1-9" x1="100.95" y1="97.11" x2="125.13" y2="39.21" xlink:href="#New_Gradient_Swatch_1"/><linearGradient id="New_Gradient_Swatch_1-10" x1="122.18" y1="102.93" x2="145.79" y2="46.39" xlink:href="#New_Gradient_Swatch_1"/><linearGradient id="New_Gradient_Swatch_1-11" x1="212.95" y1="120.67" x2="236.2" y2="64.98" xlink:href="#New_Gradient_Swatch_1"/></defs><title>vanilluxe</title><g id="Layer_2" data-name="Layer 2"><g id="Layer_1-2" data-name="Layer 1"><path class="cls-1" d="M74.14,15.5c-1.27-.14-2.4.46-3.68,1.49a16.21,16.21,0,0,0-5.92,7.7c-.55,1.61-2,5.94,0,9.05a4.32,4.32,0,0,0,2.78,2c.84.11,1.74-.15,3.14-1.19a17.64,17.64,0,0,0,5.66-8,16,16,0,0,0,1.2-6.21c-.08-2.82-1-3.72-1.3-4A3.57,3.57,0,0,0,74.14,15.5Z"/><path class="cls-1" d="M100.63,23.15c-2-.34-3.73,1.42-5.72,3.43a19.62,19.62,0,0,0-4.67,7.06,15.42,15.42,0,0,0-1,5.22,5.74,5.74,0,0,0,.69,3.33A4.39,4.39,0,0,0,92.08,44c2,.74,4-.44,4.87-1a10.75,10.75,0,0,0,3.13-3.14,21.26,21.26,0,0,0,3.38-6.36,12.09,12.09,0,0,0,.85-5.07,6,6,0,0,0-1.49-4A4.26,4.26,0,0,0,100.63,23.15Z"/><path class="cls-1" d="M49.08,45.41a4.45,4.45,0,0,0-3,.65,4.75,4.75,0,0,0-1.76,3.4c-.08.64-.21,2.65,2.48,6.33A27.28,27.28,0,0,0,54.89,63a37.66,37.66,0,0,0,7.37,3.4c4.09,1.44,8.6,3,11.48,3a4.79,4.79,0,0,1,2.55.59,4.66,4.66,0,0,1,1.56,1.5,10.79,10.79,0,0,1,1.24,3c.66,1.8,1,2.71,1.5,3.06,1.1.77,2.65.29,3.59,0,1.49-.45,3.88-1.72,4.64-3.39A1.87,1.87,0,0,1,91,72.88a24,24,0,0,0,6.85-.65,10.27,10.27,0,0,0,5.55-3.92,7,7,0,0,0,1.57-4,5,5,0,0,0-1.37-3.92,5.35,5.35,0,0,0-3.66-1c-1.81,0-2.38.45-4.63.71a22.83,22.83,0,0,1-3.72.07,58.35,58.35,0,0,1-8-.85c-2.74-.46-4.77-.94-6.27-1.3a82.41,82.41,0,0,1-12.39-3.85,35.34,35.34,0,0,1-5.49-2.55c-1.2-.74-3.75-2.43-6.65-4.5A7.4,7.4,0,0,0,49.08,45.41Z"/><path class="cls-1" d="M156.76,74.29a4.74,4.74,0,0,0-3.23,1.26c-1.56,1.59-1.16,4.09-1,5.2a12.6,12.6,0,0,0,4,6.9c1.89,1.89,5.46,4.93,13.53,8a58.11,58.11,0,0,0,14.34,3.76s11.65,1.44,21.52-2.15a16.36,16.36,0,0,0,6.27-4,10.62,10.62,0,0,0,2.33-3.95,4.53,4.53,0,0,0,.27-2.33,4.24,4.24,0,0,0-1.43-2.42,5.06,5.06,0,0,0-3.41-1c-2.38,0-3.72.74-5.65,1.34-1.77.55-3.51.64-7,.81a56.09,56.09,0,0,1-10-.45A66.47,66.47,0,0,1,176,82.81c-4.43-1.37-7-2.17-10-4-1.6-1-3.3-1.82-4.93-2.77C159.16,74.88,158.2,74.27,156.76,74.29Z"/><path class="cls-1" d="M152.54,61.47a14.51,14.51,0,0,1,12.37-11c6.91-.66,13.69,4.29,15.33,11.74a15.86,15.86,0,0,0-15.78-9.14C156.64,53.92,152.85,60.88,152.54,61.47Z"/><path class="cls-1" d="M198.44,64.16a12.3,12.3,0,0,1,14.88-5c5.92,2.48,9,9.91,6.09,16.41a12.94,12.94,0,0,0-7.53-13.9A12.81,12.81,0,0,0,198.44,64.16Z"/><path class="cls-2" d="M221.06,25.35A12.47,12.47,0,0,0,225,47.82l57.1-18.56c5.36-4.55,7.65-11.59,5.77-17.72C285.45,3.69,276.6-1.53,267.34.4Z"/><path class="cls-3" d="M16.89,88.19a32.66,32.66,0,0,0,1.29,9.16c2.15,7.33,6.5,12.24,13.17,19.62,1.9,2.1,4.44,4.78,7.61,7.74-.57,18.1-.36,31.39.26,34.33a25.62,25.62,0,0,0,1.16,3.61c.87,2.15,1.34,3.3,2.19,3.61,1.83.66,4.62-2.75,5.42-3.74,7.17-8.88,19.3-25,20.52-26.58a4.42,4.42,0,0,1,5.68.51c-.1.77-.25,2.05-.39,3.62a98.47,98.47,0,0,0-.38,10.84c.1,6.24-.93,19.74-1.81,31.36,0,0-3.87,51,1.68,67.74a3.39,3.39,0,0,0,1.67,2.2,3.47,3.47,0,0,0,2.84-.52c6.76-3.8,18.84-19,18.84-19,5.21-6.53,6-6.8,12-14.52.51-.65,3.7-4.78,6.61-8.83,8.31-11.61,29-43.27,30.58-47.24a2.79,2.79,0,0,1,1.42-1.67,3,3,0,0,1,1.94.13,6.07,6.07,0,0,1,2.06,1c-.29,1.73-.65,4.17-.9,7.1a100.34,100.34,0,0,0,0,15.48,179.83,179.83,0,0,0,2.19,19,8.55,8.55,0,0,0,2.71-.39,10,10,0,0,0,4.52-3.09c9-10.21,12-15.23,12-15.23,2.79-4.73,6.13-10.83,9.55-18.2a84.06,84.06,0,0,0,32.13-11.09l-6.71-3.1a24.25,24.25,0,0,1-11.87,6.45,25.19,25.19,0,0,1-18.71-3.74c-.94.64-12,7.84-24.65,2.84A26.67,26.67,0,0,1,135,136.2a17.66,17.66,0,0,1-12.39-5,17,17,0,0,1-4.51-8.64,25.62,25.62,0,0,1-11.88,2.32,26.18,26.18,0,0,1-15.87-6.58c-1.82.88-16.88,7.85-30.58.13a29.3,29.3,0,0,1-10.07-9.55,23.71,23.71,0,0,1-13.42.13c-9.12-2.69-13.47-10.31-14.71-12.78a25,25,0,0,1-2.06-5.8,14.55,14.55,0,0,0-1-1A11.53,11.53,0,0,0,16.89,88.19Z"/><path class="cls-4" d="M.93,33.77A47.28,47.28,0,0,0,0,41.43c-.14,4.39-.36,16,7.22,25.92A32.8,32.8,0,0,0,12.71,73a22.08,22.08,0,0,0,7.66-1.32c8.1-3,11.78-9.86,12.82-11.79a19.44,19.44,0,0,0,2.65-8.54,18.35,18.35,0,0,0-1.18-7.37A58.17,58.17,0,0,0,21.84,37.3,58.27,58.27,0,0,0,.93,33.77Z"/><path class="cls-5" d="M41.66,60.94a19.71,19.71,0,0,1,3.23,4.21,20.36,20.36,0,0,1,2.57,10.72,22.2,22.2,0,0,1-4.73,3.56,22.61,22.61,0,0,1-8.14,2.71,20,20,0,0,1-5-13.48,26.65,26.65,0,0,1,5.15-4.45A26.92,26.92,0,0,1,41.66,60.94Z"/><path class="cls-6" d="M108.49,83.17a43,43,0,0,1,3.16,7.33,43.72,43.72,0,0,1,2,9.54,22.57,22.57,0,0,1-14,8.46,20,20,0,0,1-8.08-14.34,32.93,32.93,0,0,1,16.92-11Z"/><path class="cls-7" d="M118.66,101.36a22.2,22.2,0,0,1,8.15-8,21.92,21.92,0,0,1,7.64-2.59,40.73,40.73,0,0,1,5.12,16.93A27.2,27.2,0,0,1,126.11,116a21.85,21.85,0,0,1-7.45-14.66Z"/><path class="cls-8" d="M206.25,112a19.62,19.62,0,0,1,5.12,15.37,28.44,28.44,0,0,1-5.55,4.27,28.73,28.73,0,0,1-8.11,3.24,26,26,0,0,1-2.82-5.63,25.61,25.61,0,0,1-1.45-7.86,41,41,0,0,1,6.15-5.46A40.54,40.54,0,0,1,206.25,112Z"/><path class="cls-9" d="M218.46,115.2a14.27,14.27,0,0,1,4.78-6.83,13.19,13.19,0,0,1,2.82-1.54c1.91-.14,4.65-.26,7.94-.17,5.45.16,11.37.34,17.94,3a37.85,37.85,0,0,1,8.79,5,26.31,26.31,0,0,1-3,6c-1.47,2.19-4.44,5.9-13.92,10.93a93.45,93.45,0,0,1-18.27,7.34,10.67,10.67,0,0,1-2.65-1,11.14,11.14,0,0,1-4.18-4.1C218.35,132.53,215.59,122.62,218.46,115.2Z"/><path class="cls-10" d="M42.72,11.65a28.6,28.6,0,0,0-.35,6.79,27.91,27.91,0,0,0,.84,5.1A14.44,14.44,0,0,0,48.46,22a14.61,14.61,0,0,0,5-4.2A18.87,18.87,0,0,0,52.66,8a14.22,14.22,0,0,0-9.94,3.64Z"/><path class="cls-11" d="M125.9,36.17a12.76,12.76,0,0,1,3.27,12.15,18.41,18.41,0,0,1-4.49,3.93,18.6,18.6,0,0,1-5.61,2.34,32.17,32.17,0,0,1-2-4.86,31.6,31.6,0,0,1-1.41-6.55,41.87,41.87,0,0,1,4.49-3.65A40.39,40.39,0,0,1,125.9,36.17Z"/><path class="cls-12" d="M145.07,42.81a25.93,25.93,0,0,0-9.35,7.76,17.8,17.8,0,0,0,4.39,10.94,24.33,24.33,0,0,0,6.18-3.09,24,24,0,0,0,4.49-4,19,19,0,0,0-5.71-11.59Z"/><path class="cls-13" d="M232.9,60.37a46.39,46.39,0,0,0-3.09,5.26,48.34,48.34,0,0,0-2.18,5,24.22,24.22,0,0,0,2.26,5.57,24.57,24.57,0,0,0,3.53,4.81,13.59,13.59,0,0,0,3.39-3.39,13.87,13.87,0,0,0,2.4-6.54,14.27,14.27,0,0,0-6.31-10.75Z"/></g></g></svg>